<svg width="60" height="60" viewBox="0 0 60 60" fill="none" xmlns="http://www.w3.org/2000/svg">
<path d="M41.6667 6.66699H18.3333C17.4493 6.66699 16.6014 7.01818 15.9763 7.6433C15.3512 8.26842 15 9.11627 15 10.0003V50.0003C15 50.8844 15.3512 51.7322 15.9763 52.3573C16.6014 52.9825 17.4493 53.3337 18.3333 53.3337H41.6667C42.5507 53.3337 43.3986 52.9825 44.0237 52.3573C44.6488 51.7322 45 50.8844 45 50.0003V10.0003C45 9.11627 44.6488 8.26842 44.0237 7.6433C43.3986 7.01818 42.5507 6.66699 41.6667 6.66699ZM31.6667 50.0003H28.3333V46.667H31.6667V50.0003ZM18.3333 43.3337V10.0003H41.6667V43.3337H18.3333Z" fill="white"/>
</svg>
