<svg width="60" height="60" viewBox="0 0 60 60" fill="none" xmlns="http://www.w3.org/2000/svg">
<path d="M52.5 11.25H7.5C6.50544 11.25 5.55161 11.6451 4.84835 12.3483C4.14509 13.0516 3.75 14.0054 3.75 15V45C3.75 45.9946 4.14509 46.9484 4.84835 47.6516C5.55161 48.3549 6.50544 48.75 7.5 48.75H52.5C53.4946 48.75 54.4484 48.3549 55.1516 47.6516C55.8549 46.9484 56.25 45.9946 56.25 45V15C56.25 14.0054 55.8549 13.0516 55.1516 12.3483C54.4484 11.6451 53.4946 11.25 52.5 11.25ZM7.5 45V16.7062L28.9313 31.5375C29.2451 31.7552 29.618 31.8719 30 31.8719C30.382 31.8719 30.7549 31.7552 31.0687 31.5375L52.5 16.7062V45H7.5Z" fill="white"/>
</svg>
