<svg width="40" height="40" viewBox="0 0 40 40" fill="none" xmlns="http://www.w3.org/2000/svg">
<path fill-rule="evenodd" clip-rule="evenodd" d="M38.5878 16.7945C39.1549 16.7945 39.8106 17.2174 39.8738 17.7796C40.0437 19.2944 40.0418 20.824 39.8651 22.3274C39.7958 22.913 39.2683 23.3549 38.6944 23.3084L38.447 23.3018C36.6791 23.3018 35.0354 24.391 34.3559 26.013C33.633 27.736 34.0843 29.7417 35.4763 31.0018C35.9124 31.397 35.9648 32.0636 35.5955 32.522C34.6444 33.7066 33.5565 34.7829 32.3602 35.721C31.8997 36.0772 31.2461 36.0249 30.8509 35.5947C29.6605 34.288 27.5435 33.796 25.8978 34.4682C24.1951 35.1652 23.0938 36.8795 23.1608 38.7332C23.1803 39.3146 22.751 39.8145 22.1711 39.8785C21.4392 39.96 20.7073 40 19.9756 40C19.2046 40 18.436 39.9557 17.6714 39.8663C17.0869 39.7995 16.6555 39.2864 16.6903 38.6977C16.7963 36.8243 15.7103 35.0796 13.9839 34.3572C12.3359 33.6654 10.1948 34.1551 8.9981 35.4785C8.60075 35.9165 7.93406 35.9682 7.47565 35.599C6.308 34.6585 5.24102 33.5817 4.31226 32.3979C3.95107 31.9414 4.00573 31.2846 4.43352 30.8914C5.80115 29.6371 6.25091 27.6502 5.55222 25.9454C4.85007 24.2386 3.17868 23.1608 1.43672 23.2051C0.863444 23.2051 0.188281 22.7858 0.125141 22.2212C-0.0440388 20.7069 -0.042136 19.1756 0.133617 17.6736C0.203677 17.0968 0.654996 16.6708 1.28916 16.6912C3.24338 16.6912 4.95058 15.632 5.64079 13.9878C6.3637 12.2631 5.9148 10.2582 4.52244 8.9973C4.08876 8.60272 4.03427 7.93707 4.40325 7.4778C5.35017 6.2963 6.44016 5.21947 7.6386 4.27894C8.09719 3.92138 8.75471 3.97432 9.1479 4.4054C10.3375 5.71403 12.464 6.20099 14.0989 5.53309C15.8037 4.83475 16.9025 3.12063 16.8376 1.26605C16.8184 0.68482 17.2485 0.18541 17.8276 0.121406C19.326 -0.0448336 20.8333 -0.039817 22.3273 0.133169C22.9139 0.201498 23.3443 0.713017 23.3092 1.30169C23.2025 3.1746 24.289 4.91951 26.0104 5.6438C27.6652 6.33419 29.8065 5.8436 30.9986 4.52337C31.3939 4.08589 32.0631 4.03503 32.5186 4.40038C33.6828 5.33295 34.7487 6.40909 35.687 7.60027C36.0475 8.0573 35.9951 8.71568 35.5651 9.10888C34.1997 10.3615 33.7504 12.3492 34.4467 14.054C35.1288 15.7188 36.7552 16.7945 38.5878 16.7945ZM8.46945 20.0002C8.46945 26.3682 13.6315 31.5302 19.9996 31.5302C22.2846 31.5302 24.4123 30.8629 26.2041 29.7163C27.0687 29.0857 29.018 27.4419 29.8989 25.9122C30.9339 24.1834 31.5298 22.1617 31.5298 20.0002C31.5298 13.6323 26.3676 8.47021 19.9996 8.47021C13.6317 8.47021 8.46945 13.6323 8.46945 20.0002Z" fill="white"/>
<path d="M24.8502 20.8632L29.8989 25.9121C29.0181 27.4419 27.0687 29.0856 26.2041 29.7163L21.1005 24.6127C20.2389 24.9782 19.3046 25.1711 18.3404 25.1711C16.4523 25.1711 14.6771 24.4359 13.3418 23.1008C11.5571 21.3159 10.8582 18.6917 11.5175 16.2521C11.614 15.8973 11.9205 15.6499 12.2629 15.6499C12.4097 15.6499 12.6301 15.6949 12.845 15.9091C12.845 15.9091 15.2398 18.2867 16.1078 19.1548C16.2424 19.2892 16.3905 19.3174 16.4912 19.3174C16.5095 19.3174 16.5308 19.3155 16.5308 19.3155C17.4621 19.2321 18.6213 19.0626 19.0498 18.9251L19.0658 18.9086C19.0787 18.8952 19.0915 18.8819 19.1052 18.8683C19.1148 18.8587 19.124 18.85 19.1333 18.8413L19.1333 18.8413C19.1416 18.8334 19.1499 18.8256 19.1584 18.8171C19.2922 18.3942 19.4542 17.2936 19.5383 16.3768L19.5461 16.322C19.5584 16.2469 19.5586 16.0385 19.4712 15.9511C18.6372 15.1173 16.1447 12.6056 16.1447 12.6056C15.9319 12.3926 15.8504 12.1136 15.9227 11.8413C15.9935 11.5751 16.2108 11.3561 16.4765 11.2836C17.0831 11.1184 17.7102 11.0347 18.3402 11.0347C20.228 11.0347 22.003 11.7699 23.3379 13.1048C24.6732 14.4397 25.4086 16.2147 25.4086 18.1029C25.4088 19.0671 25.2157 20.0014 24.8502 20.8632Z" stroke="white"/>
</svg>
