<svg width="26" height="35" viewBox="0 0 26 35" fill="none" xmlns="http://www.w3.org/2000/svg">
<path d="M13.072 35H6.064L14.8 22.376L14.752 22.328C13.824 22.744 12.608 22.952 11.104 22.952C8.096 22.952 5.536 21.912 3.424 19.832C1.312 17.72 0.256 15.128 0.256 12.056C0.256 8.504 1.424 5.64 3.76 3.464C6.128 1.256 9.088 0.151999 12.64 0.151999C16.192 0.151999 19.152 1.272 21.52 3.512C23.888 5.752 25.072 8.52 25.072 11.816C25.072 13.64 24.784 15.288 24.208 16.76C23.664 18.2 22.784 19.896 21.568 21.848L13.072 35ZM19.216 11.672C19.216 9.816 18.608 8.232 17.392 6.92C16.176 5.608 14.608 4.952 12.688 4.952C10.736 4.952 9.152 5.592 7.936 6.872C6.752 8.12 6.16 9.752 6.16 11.768C6.16 13.688 6.752 15.272 7.936 16.52C9.12 17.768 10.672 18.392 12.592 18.392C14.544 18.392 16.128 17.768 17.344 16.52C18.592 15.272 19.216 13.656 19.216 11.672Z" fill="white"/>
</svg>
