<svg width="40" height="31" viewBox="0 0 40 31" fill="none" xmlns="http://www.w3.org/2000/svg">
<path d="M37.6562 25.7812H2.34375C1.0493 25.7812 0 26.8305 0 28.125C0 29.4193 1.0493 30.4688 2.34375 30.4688H37.6562C38.9507 30.4688 40 29.4193 40 28.125C40 26.8305 38.9507 25.7812 37.6562 25.7812Z" fill="white"/>
<path d="M31.5469 10.5469V8.0528C34.6481 11.0635 36.5781 15.2634 36.5781 19.9219V22.4375H3.42188V19.9219C3.42188 15.2634 5.3519 11.0635 8.45312 8.0528V10.5469C8.45312 11.7469 9.42498 12.7188 10.625 12.7188C11.825 12.7188 12.7969 11.7469 12.7969 10.5469V4.99724C12.9105 4.94306 13.0251 4.89019 13.1406 4.83855V12.8906C13.1406 14.0906 14.1125 15.0625 15.3125 15.0625C16.5125 15.0625 17.4844 14.0906 17.4844 12.8906V1.17188C17.4844 1.0776 17.562 1 17.6562 1H22.3438C22.438 1 22.5156 1.0776 22.5156 1.17188V12.8906C22.5156 14.0906 23.4875 15.0625 24.6875 15.0625C25.8875 15.0625 26.8594 14.0906 26.8594 12.8906V4.83847C26.9749 4.89011 27.0895 4.94299 27.2031 4.99716V10.5469C27.2031 11.7469 28.175 12.7188 29.375 12.7188C30.575 12.7188 31.5469 11.7469 31.5469 10.5469Z" stroke="white" stroke-width="2"/>
</svg>
