<svg width="60" height="60" viewBox="0 0 60 60" fill="none" xmlns="http://www.w3.org/2000/svg">
<path d="M30 2.5C35.9674 2.5 41.6903 4.87053 45.9099 9.0901C50.1295 13.3097 52.5 19.0326 52.5 25C52.5 34.315 45.4 44.075 31.5 54.5C31.0673 54.8246 30.5409 55 30 55C29.4591 55 28.9327 54.8246 28.5 54.5C14.6 44.075 7.5 34.315 7.5 25C7.5 19.0326 9.87053 13.3097 14.0901 9.0901C18.3097 4.87053 24.0326 2.5 30 2.5ZM30 7.5C25.3587 7.5 20.9075 9.34374 17.6256 12.6256C14.3437 15.9075 12.5 20.3587 12.5 25C12.5 31.775 17.795 39.59 28.62 48.265L30 49.355L31.38 48.265C42.205 39.59 47.5 31.775 47.5 25C47.5 20.3587 45.6563 15.9075 42.3744 12.6256C39.0925 9.34374 34.6413 7.5 30 7.5ZM30 20C31.3261 20 32.5979 20.5268 33.5355 21.4645C34.4732 22.4021 35 23.6739 35 25C35 26.3261 34.4732 27.5979 33.5355 28.5355C32.5979 29.4732 31.3261 30 30 30C28.6739 30 27.4021 29.4732 26.4645 28.5355C25.5268 27.5979 25 26.3261 25 25C25 23.6739 25.5268 22.4021 26.4645 21.4645C27.4021 20.5268 28.6739 20 30 20Z" fill="white"/>
</svg>
