<svg width="82" height="78" viewBox="0 0 82 78" fill="none" xmlns="http://www.w3.org/2000/svg">
<path d="M81.2442 77.5957L58.6587 54.7734C63.8196 48.5807 66.4 41.4538 66.4 33.3926C66.4 28.8548 65.5221 24.5306 63.7663 20.4199C62.0106 16.3092 59.6562 12.7591 56.7034 9.76953C53.7505 6.77995 50.2256 4.4043 46.1288 2.64258C42.0321 0.880859 37.7224 0 33.2 0C27.1878 0 21.6279 1.48145 16.5202 4.44434C11.4125 7.40723 7.38221 11.4512 4.42933 16.5762C1.47644 21.7012 0 27.2933 0 33.3525C0 39.4118 1.47644 45.0039 4.42933 50.1289C7.38221 55.2539 11.4125 59.2979 16.5202 62.2607C21.6279 65.2236 27.1878 66.7051 33.2 66.7051C41.5 66.7051 48.7891 63.9557 55.0673 58.457L77.5731 81.1992C77.7859 81.4128 78.012 81.5863 78.2514 81.7197C78.4909 81.8532 78.7436 81.9333 79.0096 81.96C79.2756 81.9867 79.5417 81.9867 79.8077 81.96C80.0737 81.9333 80.3264 81.8532 80.5659 81.7197C80.8053 81.5863 81.0314 81.4128 81.2442 81.1992C81.7231 80.7188 81.9625 80.1182 81.9625 79.3975C81.9625 78.6768 81.7231 78.0762 81.2442 77.5957ZM33.2 61.5C28.0923 61.5 23.3837 60.2321 19.074 57.6963C14.7644 55.1605 11.3593 51.7305 8.85865 47.4062C6.35801 43.082 5.10769 38.3841 5.10769 33.3125C5.10769 28.2409 6.35801 23.543 8.85865 19.2188C11.3593 14.8945 14.7644 11.4645 19.074 8.92871C23.3837 6.3929 28.079 5.125 33.1601 5.125C38.2412 5.125 42.9365 6.3929 47.2462 8.92871C51.5558 11.4645 54.9742 14.8945 57.5014 19.2188C60.0287 23.543 61.2923 28.2409 61.2923 33.3125C61.2923 40.8398 58.6853 47.3262 53.4712 52.7715C48.3103 58.1634 42.0321 61.0729 34.6365 61.5H33.2ZM45.9692 30.75H35.7538V20.5C35.7538 19.806 35.5011 19.2054 34.9957 18.6982C34.4902 18.1911 33.8784 17.9375 33.1601 17.9375C32.4418 17.9375 31.8433 18.1911 31.3644 18.6982C30.8856 19.2054 30.6462 19.806 30.6462 20.5V30.75H20.4308C19.6859 30.75 19.074 31.0036 18.5952 31.5107C18.1163 32.0179 17.8769 32.6185 17.8769 33.3125C17.8769 34.0065 18.1163 34.6071 18.5952 35.1143C19.074 35.6214 19.6859 35.875 20.4308 35.875H30.6462V46.125C30.6462 46.819 30.8856 47.4196 31.3644 47.9268C31.8433 48.4339 32.4418 48.6875 33.1601 48.6875C33.8784 48.6875 34.4902 48.4339 34.9957 47.9268C35.5011 47.4196 35.7538 46.819 35.7538 46.125V35.875H45.9692C46.6609 35.875 47.2595 35.6214 47.7649 35.1143C48.2704 34.6071 48.5231 34.0065 48.5231 33.3125C48.5231 32.6185 48.2704 32.0179 47.7649 31.5107C47.2595 31.0036 46.6609 30.75 45.9692 30.75Z" fill="#000710"/>
</svg>
