<svg width="30" height="30" viewBox="0 0 30 30" fill="none" xmlns="http://www.w3.org/2000/svg">
<path d="M20.8333 3.33319H9.16667C8.72464 3.33319 8.30072 3.50879 7.98816 3.82135C7.6756 4.13391 7.5 4.55783 7.5 4.99986V24.9999C7.5 25.4419 7.6756 25.8658 7.98816 26.1784C8.30072 26.4909 8.72464 26.6665 9.16667 26.6665H20.8333C21.2754 26.6665 21.6993 26.4909 22.0118 26.1784C22.3244 25.8658 22.5 25.4419 22.5 24.9999V4.99986C22.5 4.55783 22.3244 4.13391 22.0118 3.82135C21.6993 3.50879 21.2754 3.33319 20.8333 3.33319V3.33319ZM15.8333 24.9999H14.1667V23.3332H15.8333V24.9999ZM9.16667 21.6665V4.99986H20.8333V21.6665H9.16667Z" fill="white"/>
</svg>
