<svg width="60" height="60" viewBox="0 0 60 60" fill="none" xmlns="http://www.w3.org/2000/svg">
<path fill-rule="evenodd" clip-rule="evenodd" d="M40.3125 15.4688V18.2812C40.3125 18.5391 40.1016 18.75 39.8438 18.75H17.3438C17.0859 18.75 16.875 18.5391 16.875 18.2812V15.4688C16.875 15.2109 17.0859 15 17.3438 15H39.8438C40.1016 15 40.3125 15.2109 40.3125 15.4688ZM16.875 23.9062C16.875 23.6484 17.0859 23.4375 17.3438 23.4375H28.125C28.3828 23.4375 28.5938 23.6484 28.5938 23.9062V26.7188C28.5938 26.9766 28.3828 27.1875 28.125 27.1875H17.3438C17.0859 27.1875 16.875 26.9766 16.875 26.7188V23.9062ZM26.7188 42.8906C26.7188 35.9004 32.3848 30.2344 39.375 30.2344C46.3652 30.2344 52.0312 35.9004 52.0312 42.8906C52.0312 49.8809 46.3652 55.5469 39.375 55.5469C32.3848 55.5469 26.7188 49.8809 26.7188 42.8906ZM12.1875 49.9219H25.7812C26.0391 49.9219 26.25 50.1328 26.25 50.3906V53.6719C26.25 53.9297 26.0391 54.1406 25.7812 54.1406H9.84375C8.80664 54.1406 7.96875 53.3027 7.96875 52.2656V6.32812C7.96875 5.29102 8.80664 4.45312 9.84375 4.45312H47.3438C48.3809 4.45312 49.2188 5.29102 49.2188 6.32812V28.8281C49.2188 29.0859 49.0078 29.2969 48.75 29.2969H45.4688C45.2109 29.2969 45 29.0859 45 28.8281V8.67188H12.1875V49.9219ZM41.9943 38.4375H44.59C44.9709 38.4375 45.1935 38.8711 44.965 39.1816L38.2736 48.4395C38.0861 48.6973 37.7052 48.6973 37.5177 48.4395L33.1935 42.457C32.9708 42.1465 33.1935 41.7129 33.5744 41.7129H36.1583C36.2327 41.7123 36.3061 41.7295 36.3724 41.7631C36.4386 41.7968 36.4959 41.8459 36.5392 41.9062L37.8927 43.7754L41.6134 38.6309C41.7013 38.5078 41.8419 38.4375 41.9943 38.4375Z" fill="white"/>
</svg>
