<svg width="60" height="60" viewBox="0 0 60 60" fill="none" xmlns="http://www.w3.org/2000/svg">
<path d="M48.3333 53.3333H43.3333V41.5166C43.3275 39.7894 42.9193 38.0873 42.1411 36.5453C41.3629 35.0033 40.236 33.6639 38.85 32.6333L36.7167 30.9666C36.1757 30.5918 35.601 30.2681 35 29.9999C35.5866 29.7083 36.1446 29.3623 36.6667 28.9666L38.8 27.2999C41.0527 25.6132 42.5832 23.136 43.0833 20.3666C41.9001 19.5865 40.8576 18.6116 40 17.4833V18.4999C39.9948 19.7057 39.709 20.8936 39.1651 21.9698C38.6213 23.0459 37.8344 23.9806 36.8667 24.6999L34.7333 26.3666C34.1317 26.8093 33.4693 27.163 32.7667 27.4166C32.4477 27.5358 32.1728 27.7498 31.9791 28.0299C31.7855 28.31 31.6822 28.6427 31.6833 28.9832V31.2166C31.6822 31.5571 31.7855 31.8898 31.9791 32.1699C32.1728 32.45 32.4477 32.6641 32.7667 32.7833C33.475 33.0356 34.1431 33.3893 34.75 33.8333L36.8833 35.4999C37.8237 36.2022 38.5926 37.1084 39.1324 38.1504C39.6722 39.1925 39.9688 40.3434 40 41.5166V53.3333H20V41.5166C20.0052 40.3108 20.291 39.1229 20.8348 38.0467C21.3787 36.9706 22.1656 36.0359 23.1333 35.3166L25.2667 33.6499C25.8683 33.2072 26.5307 32.8535 27.2333 32.5999C27.5523 32.4807 27.8272 32.2667 28.0209 31.9866C28.2145 31.7065 28.3178 31.3738 28.3167 31.0333V28.8833C28.3178 28.5427 28.2145 28.21 28.0209 27.9299C27.8272 27.6498 27.5523 27.4358 27.2333 27.3166C26.525 27.0642 25.8569 26.7106 25.25 26.2666L23.1167 24.5999C22.1632 23.8874 21.3862 22.9652 20.8458 21.9046C20.3054 20.8441 20.016 19.6735 20 18.4833V6.66659H37.9667C38.2943 5.4885 38.7941 4.36526 39.45 3.33325H11.6667C11.2246 3.33325 10.8007 3.50885 10.4882 3.82141C10.1756 4.13397 10 4.55789 10 4.99992C10 5.44195 10.1756 5.86587 10.4882 6.17843C10.8007 6.49099 11.2246 6.66659 11.6667 6.66659H16.6667V18.4833C16.6725 20.2105 17.0807 21.9126 17.8589 23.4546C18.6371 24.9965 19.764 26.336 21.15 27.3666L23.2833 29.0333C23.8243 29.4081 24.399 29.7317 25 29.9999C24.4133 30.2914 23.8553 30.6373 23.3333 31.0333L21.2 32.6999C19.8137 33.7185 18.6827 35.045 17.8961 36.5749C17.1094 38.1048 16.6886 39.7964 16.6667 41.5166V53.3333H11.6667C11.2246 53.3333 10.8007 53.5088 10.4882 53.8214C10.1756 54.134 10 54.5579 10 54.9999C10 55.4419 10.1756 55.8659 10.4882 56.1784C10.8007 56.491 11.2246 56.6666 11.6667 56.6666H48.3333C48.7754 56.6666 49.1993 56.491 49.5118 56.1784C49.8244 55.8659 50 55.4419 50 54.9999C50 54.5579 49.8244 54.134 49.5118 53.8214C49.1993 53.5088 48.7754 53.3333 48.3333 53.3333Z" fill="white"/>
<path d="M50.0013 18.3334C54.6037 18.3334 58.3346 14.6025 58.3346 10.0001C58.3346 5.39771 54.6037 1.66675 50.0013 1.66675C45.3989 1.66675 41.668 5.39771 41.668 10.0001C41.668 14.6025 45.3989 18.3334 50.0013 18.3334Z" fill="white"/>
</svg>
