<svg width="60" height="60" viewBox="0 0 60 60" fill="none" xmlns="http://www.w3.org/2000/svg">
<path d="M46.875 24.375L43.8881 30L37.5 30.7762L42.1875 35.0006L41.25 41.25L46.875 37.7344L52.5 41.25L51.5625 35.0006L56.25 30.7762L49.6875 30L46.875 24.375Z" fill="white"/>
<path d="M40.1512 25.1512L46.875 18.4387L53.6006 25.155L56.25 22.5L46.875 13.125L37.5 22.5L40.1512 25.1512Z" fill="white"/>
<path d="M40.1512 15.7762L46.875 9.06375L53.6006 15.78L56.25 13.125L46.875 3.75L37.5 13.125L40.1512 15.7762Z" fill="white"/>
<path d="M30 56.25H26.25V46.875C26.2485 45.3836 25.6554 43.9537 24.6008 42.8992C23.5463 41.8446 22.1164 41.2515 20.625 41.25H13.125C11.6336 41.2515 10.2037 41.8446 9.14917 42.8992C8.0946 43.9537 7.50149 45.3836 7.5 46.875V56.25H3.75V46.875C3.75298 44.3895 4.74165 42.0067 6.49916 40.2492C8.25667 38.4917 10.6395 37.503 13.125 37.5H20.625C23.1105 37.503 25.4933 38.4917 27.2508 40.2492C29.0083 42.0067 29.997 44.3895 30 46.875V56.25Z" fill="white"/>
<path d="M16.875 18.75C17.9875 18.75 19.0751 19.0799 20.0001 19.698C20.9251 20.3161 21.6461 21.1946 22.0718 22.2224C22.4976 23.2502 22.609 24.3812 22.3919 25.4724C22.1749 26.5635 21.6392 27.5658 20.8525 28.3525C20.0658 29.1391 19.0635 29.6749 17.9724 29.8919C16.8812 30.109 15.7502 29.9976 14.7224 29.5718C13.6946 29.1461 12.8161 28.4251 12.198 27.5001C11.5799 26.5751 11.25 25.4875 11.25 24.375C11.25 22.8832 11.8426 21.4524 12.8975 20.3975C13.9524 19.3426 15.3832 18.75 16.875 18.75ZM16.875 15C15.0208 15 13.2082 15.5498 11.6665 16.58C10.1248 17.6101 8.92321 19.0743 8.21363 20.7873C7.50406 22.5004 7.31841 24.3854 7.68014 26.204C8.04188 28.0225 8.93476 29.693 10.2459 31.0041C11.557 32.3152 13.2275 33.2081 15.046 33.5699C16.8646 33.9316 18.7496 33.7459 20.4627 33.0364C22.1757 32.3268 23.6399 31.1252 24.67 29.5835C25.7002 28.0418 26.25 26.2292 26.25 24.375C26.25 23.1439 26.0075 21.9248 25.5364 20.7873C25.0652 19.6499 24.3747 18.6164 23.5041 17.7459C22.6336 16.8753 21.6001 16.1848 20.4627 15.7136C19.3252 15.2425 18.1061 15 16.875 15Z" fill="white"/>
</svg>
