<svg width="60" height="60" viewBox="0 0 60 60" fill="none" xmlns="http://www.w3.org/2000/svg">
<path d="M57.9023 27.6609C57.3433 25.8601 55.6384 24.6578 53.7536 24.7333L53.3515 24.7498C52.1722 24.7979 51.0629 25.284 50.2321 26.1149L44.0169 32.2648C43.8696 32.0399 43.7007 31.8261 43.5085 31.6266C42.6914 30.7775 41.5467 30.2911 40.3684 30.2911H31.6017C29.9476 30.2911 28.3346 30.0765 26.8068 29.6539C22.8277 28.5525 19.0309 29.3476 15.8267 31.9531C14.475 33.0527 13.5034 34.2527 12.9074 35.1007C12.2324 34.6313 11.4294 34.3852 10.5965 34.3993C9.54011 34.4175 8.55477 34.8459 7.82246 35.6071L2.15592 41.4892C1.73741 41.9235 1.74599 42.614 2.17583 43.038L6.73276 47.5327C7.16569 47.9595 7.86366 47.955 8.2911 47.5218C8.71785 47.0885 8.71339 46.3912 8.28011 45.9638L4.49841 42.2339L9.4093 37.1355C9.73237 36.8001 10.1674 36.6106 10.6332 36.6031C11.1036 36.5945 11.54 36.7696 11.8747 37.094L20.6366 45.5967C20.9707 45.9212 21.1585 46.3558 21.165 46.8214C21.1715 47.2873 20.9961 47.7271 20.671 48.0608L15.8452 53.0122L14.6034 51.8294C14.1626 51.4095 13.4653 51.4267 13.0454 51.8675C12.6262 52.3084 12.6434 53.0057 13.0842 53.4248L15.1143 55.3588C15.3278 55.5617 15.6011 55.6626 15.8741 55.6626C16.1611 55.6626 16.4474 55.551 16.6634 55.3299L22.2492 49.5985C22.9857 48.8432 23.3829 47.8458 23.3685 46.7912C23.3616 46.3088 23.2682 45.8408 23.0972 45.4048L25.0648 45.1758C25.9777 45.0697 26.9064 45.0155 27.8255 45.0155H41.1646C41.3689 45.0155 41.5756 45.0069 41.7791 44.9897L43.0573 44.8833C44.353 44.7759 45.6017 44.3261 46.6691 43.5838C47.193 43.2192 47.6682 42.788 48.0815 42.3015L57.0701 31.7265C58.0307 30.5966 58.3414 29.0771 57.9023 27.6609ZM55.3912 30.2993L46.4023 40.8743C46.1122 41.2156 45.7785 41.5184 45.4105 41.7745C44.661 42.296 43.7838 42.6115 42.8747 42.6874L41.5958 42.7939C41.4533 42.8059 41.3078 42.812 41.1646 42.812H27.8255C26.8216 42.812 25.8071 42.8708 24.8104 42.9865L21.6244 43.3572L14.576 36.5608C15.0559 35.8495 15.9379 34.7028 17.2171 33.6628C19.882 31.4961 22.9105 30.8617 26.2191 31.7773C27.9381 32.2531 29.7491 32.4942 31.6017 32.4942H40.3684C40.951 32.4942 41.5172 32.7352 41.9216 33.1547C42.2172 33.4616 42.4047 33.8379 42.4819 34.2324C42.4806 34.332 42.4929 34.4312 42.5187 34.5277C42.5478 35.0444 42.393 35.571 42.049 35.9991L42.015 36.0417C41.604 36.554 40.9912 36.8482 40.3341 36.8482H32.702C32.0933 36.8482 31.6003 37.3412 31.6003 37.9496C31.6003 38.5583 32.0933 39.0516 32.702 39.0516H40.3341C41.6631 39.0516 42.9022 38.457 43.734 37.4198L43.768 37.3776C44.4052 36.5838 44.7211 35.6232 44.7242 34.6647L51.7856 27.677C52.2285 27.2345 52.8163 26.9766 53.4415 26.9512L53.8439 26.9351C54.7324 26.8973 55.5347 27.4655 55.7977 28.3139C56.0123 29.0053 55.8602 29.7476 55.3912 30.2993Z" fill="white" stroke="white"/>
<path d="M10.6046 38.9268C8.95937 38.9268 7.62109 40.2654 7.62109 41.9102C7.62109 43.5558 8.95937 44.8944 10.6046 44.8944C12.2498 44.8944 13.5884 43.5558 13.5884 41.9102C13.5884 40.2654 12.2498 38.9268 10.6046 38.9268ZM10.6046 42.6906C10.1744 42.6906 9.8242 42.3408 9.8242 41.9102C9.8242 41.4804 10.1744 41.1305 10.6046 41.1305C11.0344 41.1305 11.3846 41.4804 11.3846 41.9102C11.3846 42.3408 11.0344 42.6906 10.6046 42.6906Z" fill="white"/>
<path fill-rule="evenodd" clip-rule="evenodd" d="M45.7509 11.7842C45.7509 18.214 40.52 23.4449 34.0903 23.4449C27.6606 23.4449 22.4297 18.214 22.4297 11.7842C22.4297 9.74937 22.9618 7.74506 23.9695 5.98896C24.4155 5.21202 24.9528 4.48452 25.5659 3.82774C25.9759 3.38829 26.4232 2.97768 26.896 2.60689C28.9652 0.982285 31.4529 0.123291 34.0903 0.123291C40.52 0.123291 45.7509 5.3545 45.7509 11.7842ZM33.6524 15.9132C34.0438 15.9132 34.6209 15.8194 35.0651 15.5554C35.5334 15.277 35.7418 14.8839 35.7418 14.2796C35.7418 13.2531 34.4317 12.6729 34.1007 12.6461C32.8953 12.6427 30.2713 11.7892 30.2713 9.26471C30.2713 7.20649 31.5749 6.13738 32.7786 5.69003V5.61794C32.7786 5.00957 33.272 4.51587 33.8803 4.51587C34.4674 4.51587 34.9453 4.97523 34.979 5.55373C35.5798 5.72471 36.1573 6.06734 36.6393 6.54868C37.4409 7.35069 37.4409 8.14857 37.4409 8.85272C37.4409 9.46143 36.9472 9.9565 36.3389 9.9565C35.7308 9.9565 35.2371 9.46555 35.2371 8.85719C35.2371 8.26362 35.2221 8.24849 35.0812 8.1073L35.0809 8.10703C34.7874 7.81348 34.4149 7.63152 34.1086 7.63152C34.0922 7.63152 32.4748 7.67616 32.4748 9.26471C32.4748 10.2991 34.0922 10.443 34.1086 10.443C35.4105 10.443 37.9456 11.7974 37.9456 14.28C37.9456 16.3505 36.5723 17.5354 34.981 17.9484C34.9694 18.5471 34.4815 19.0288 33.8803 19.0288C33.295 19.0288 32.8178 18.5718 32.782 17.9954C31.2172 17.5536 30.0547 15.9482 30.0547 14.04C30.0547 13.4316 30.5477 12.9383 31.1564 12.9383C31.7648 12.9383 32.2581 13.4316 32.2581 14.04C32.2581 15.0377 32.9094 15.9132 33.6524 15.9132Z" fill="white"/>
</svg>
