<svg width="60" height="60" viewBox="0 0 60 60" fill="none" xmlns="http://www.w3.org/2000/svg">
<g clip-path="url(#clip0_140_630)">
<path d="M32.1713 3.4314C31.9136 3.68271 31.7959 4.0448 31.8573 4.40002L32.1438 6.07132L30.6387 5.28214C30.3201 5.11414 29.9388 5.11414 29.6197 5.28214L28.1174 6.07224L28.4039 4.40002C28.4648 4.0448 28.3476 3.68271 28.0899 3.43094L26.875 2.2467L28.5591 2.00272C28.9157 1.95099 29.2238 1.72714 29.3835 1.40396L30.1343 -0.117188L30.885 1.40442C31.0448 1.72714 31.3528 1.95099 31.7094 2.00272L33.3885 2.24716L32.1713 3.4314Z" fill="white"/>
<path d="M15.5822 7.08202C15.3244 7.33379 15.2068 7.69588 15.2681 8.05064L15.5547 9.72193L14.0519 8.93275C13.7328 8.76521 13.3519 8.76521 13.0329 8.93275L11.5323 9.72193L11.8189 8.05064C11.8798 7.69542 11.7617 7.33333 11.504 7.08202L10.2891 5.89687L11.9677 5.6538C12.3247 5.60162 12.6328 5.37731 12.7921 5.05367L13.5428 3.53345L14.2936 5.05505C14.4533 5.37777 14.7614 5.60207 15.118 5.6538L16.7971 5.89687L15.5822 7.08202Z" fill="white"/>
<path d="M48.6799 7.08202C48.4222 7.33379 48.3045 7.69588 48.3659 8.05064L48.6524 9.72193L47.1519 8.93275C46.8328 8.76521 46.4519 8.76521 46.1329 8.93275L44.63 9.72193L44.9166 8.05064C44.9779 7.69588 44.8603 7.33379 44.6026 7.08202L43.3867 5.89687L45.0654 5.6538C45.422 5.60207 45.7305 5.37777 45.8898 5.05505L46.6415 3.53345L47.3913 5.05367C47.5506 5.37731 47.8587 5.60162 48.2157 5.6538L49.8957 5.89687L48.6799 7.08202Z" fill="white"/>
<path d="M58.2619 18.8384C58.0046 19.0897 57.8869 19.4513 57.9474 19.8056L58.2344 21.4783L56.7316 20.6891C56.4125 20.5211 56.0316 20.5211 55.7126 20.6891L54.212 21.4783L54.4986 19.8056C54.559 19.4509 54.4414 19.0892 54.1837 18.8384L52.9688 17.6541L54.6474 17.4097C55.004 17.358 55.312 17.1341 55.4718 16.8114L56.2225 15.2898L56.9733 16.8114C57.133 17.1341 57.4411 17.358 57.7977 17.4097L59.4768 17.6541L58.2619 18.8384Z" fill="white"/>
<path d="M5.99625 18.8393C5.73898 19.0906 5.62134 19.4522 5.68222 19.8065L5.96878 21.4792L4.46823 20.69C4.14917 20.522 3.76831 20.522 3.44925 20.69L1.94641 21.4792L2.23297 19.8065C2.29385 19.4522 2.17621 19.0906 1.91895 18.8393L0.703125 17.6559L2.3822 17.4161C2.7388 17.3643 3.04688 17.1405 3.20618 16.8178L3.95828 15.2961L4.7081 16.8178C4.8674 17.1405 5.17548 17.3643 5.53207 17.4161L7.21207 17.6605L5.99625 18.8393Z" fill="white"/>
<path d="M48.5995 39.9553C49.3575 38.8445 49.7862 37.6597 49.7862 36.2272C49.7862 32.9349 46.5693 29.8258 42.3683 29.8258H39.2151C39.6404 28.8676 39.9801 27.7217 39.9801 26.3446C39.9801 20.8996 36.7223 18.5107 31.7453 18.5107C26.4202 18.5107 26.7239 25.6118 25.5426 26.6341C23.5765 28.3356 21.2541 31.6044 19.5993 32.8724H11.0628C9.53525 32.8724 8.29688 33.9441 8.29688 35.2661V53.2182C8.29688 54.5401 9.53525 55.6118 11.0628 55.6118H16.5947C17.882 55.6118 18.9638 54.8508 19.2724 53.8203C23.1196 53.8952 25.7603 56.8079 34.6409 56.8079C35.265 56.8079 35.9565 56.8086 36.5615 56.8086C43.2272 56.8086 46.2411 53.8598 46.3236 49.6779C47.4748 48.2997 48.0782 46.4523 47.8224 44.667C48.6742 43.2868 49.0035 41.6493 48.5995 39.9553ZM43.262 43.9818C44.3477 45.5624 43.3709 47.6777 42.0571 48.2881C42.7227 51.9369 40.5351 53.2174 37.4656 53.2174H34.1966C28.0044 53.2174 23.9946 50.3885 19.3607 50.3885V36.4629H20.3046C22.7559 36.4629 26.1805 31.1603 28.4763 29.1728C30.9276 27.0515 30.1108 23.5156 31.7453 22.1012C35.8311 22.1012 35.8311 24.5681 35.8311 26.3446C35.8311 29.2745 33.3798 30.5873 33.3798 33.4162H42.3683C44.193 33.4162 45.6295 34.8307 45.6373 36.2452C45.6451 37.6589 44.5292 39.0734 43.7124 39.0734C44.8783 40.1621 45.1274 42.4571 43.262 43.9818ZM15.9033 50.8246C15.9033 51.8161 14.9745 52.6198 13.8288 52.6198C12.6831 52.6198 11.7543 51.8161 11.7543 50.8246C11.7543 49.8331 12.6831 49.0294 13.8288 49.0294C14.9745 49.0294 15.9033 49.8331 15.9033 50.8246Z" fill="white"/>
</g>
<defs>
<clipPath id="clip0_140_630">
<rect width="60" height="60" fill="white"/>
</clipPath>
</defs>
</svg>
