<svg width="110" height="110" viewBox="0 0 110 110" fill="none" xmlns="http://www.w3.org/2000/svg">
<circle cx="55" cy="55" r="55" fill="#C4C4C4"/>
<path d="M24.848 65V48.248H28.496V61.76H34.88V65H24.848ZM43.3336 65.288C42.2296 65.288 41.2216 65.104 40.3096 64.736C39.3976 64.368 38.6216 63.824 37.9816 63.104C37.3416 62.368 36.8456 61.464 36.4936 60.392C36.1416 59.304 35.9656 58.048 35.9656 56.624C35.9656 55.2 36.1416 53.952 36.4936 52.88C36.8456 51.792 37.3416 50.888 37.9816 50.168C38.6216 49.432 39.3976 48.88 40.3096 48.512C41.2216 48.144 42.2296 47.96 43.3336 47.96C44.4376 47.96 45.4456 48.144 46.3576 48.512C47.2696 48.88 48.0456 49.432 48.6856 50.168C49.3256 50.888 49.8216 51.792 50.1736 52.88C50.5256 53.952 50.7016 55.2 50.7016 56.624C50.7016 58.048 50.5256 59.304 50.1736 60.392C49.8216 61.464 49.3256 62.368 48.6856 63.104C48.0456 63.824 47.2696 64.368 46.3576 64.736C45.4456 65.104 44.4376 65.288 43.3336 65.288ZM43.3336 62.048C44.4376 62.048 45.2936 61.688 45.9016 60.968C46.5256 60.248 46.8376 59.216 46.8376 57.872V55.376C46.8376 54.032 46.5256 53 45.9016 52.28C45.2936 51.56 44.4376 51.2 43.3336 51.2C42.2296 51.2 41.3656 51.56 40.7416 52.28C40.1336 53 39.8296 54.032 39.8296 55.376V57.872C39.8296 59.216 40.1336 60.248 40.7416 60.968C41.3656 61.688 42.2296 62.048 43.3336 62.048ZM64.3784 62.336H64.2584C64.1304 63.184 63.6984 63.888 62.9624 64.448C62.2264 65.008 61.2264 65.288 59.9624 65.288C59.0024 65.288 58.1064 65.104 57.2744 64.736C56.4424 64.368 55.7144 63.824 55.0904 63.104C54.4664 62.384 53.9784 61.488 53.6264 60.416C53.2744 59.344 53.0984 58.104 53.0984 56.696C53.0984 55.288 53.2824 54.04 53.6504 52.952C54.0184 51.864 54.5304 50.952 55.1864 50.216C55.8584 49.48 56.6584 48.92 57.5864 48.536C58.5144 48.152 59.5464 47.96 60.6824 47.96C62.1864 47.96 63.4824 48.288 64.5704 48.944C65.6584 49.584 66.5144 50.552 67.1384 51.848L64.1624 53.552C63.9064 52.896 63.5064 52.344 62.9624 51.896C62.4184 51.432 61.6584 51.2 60.6824 51.2C59.5464 51.2 58.6424 51.528 57.9704 52.184C57.2984 52.84 56.9624 53.872 56.9624 55.28V57.968C56.9624 59.36 57.2984 60.392 57.9704 61.064C58.6424 61.72 59.5464 62.048 60.6824 62.048C61.1304 62.048 61.5544 62 61.9544 61.904C62.3544 61.792 62.7064 61.632 63.0104 61.424C63.3144 61.2 63.5464 60.936 63.7064 60.632C63.8824 60.328 63.9704 59.968 63.9704 59.552V58.712H60.8504V55.664H67.4504V65H64.3784V62.336ZM77.7164 65.288C76.6124 65.288 75.6044 65.104 74.6924 64.736C73.7804 64.368 73.0044 63.824 72.3644 63.104C71.7244 62.368 71.2284 61.464 70.8764 60.392C70.5244 59.304 70.3484 58.048 70.3484 56.624C70.3484 55.2 70.5244 53.952 70.8764 52.88C71.2284 51.792 71.7244 50.888 72.3644 50.168C73.0044 49.432 73.7804 48.88 74.6924 48.512C75.6044 48.144 76.6124 47.96 77.7164 47.96C78.8204 47.96 79.8284 48.144 80.7404 48.512C81.6524 48.88 82.4284 49.432 83.0684 50.168C83.7084 50.888 84.2044 51.792 84.5564 52.88C84.9084 53.952 85.0844 55.2 85.0844 56.624C85.0844 58.048 84.9084 59.304 84.5564 60.392C84.2044 61.464 83.7084 62.368 83.0684 63.104C82.4284 63.824 81.6524 64.368 80.7404 64.736C79.8284 65.104 78.8204 65.288 77.7164 65.288ZM77.7164 62.048C78.8204 62.048 79.6764 61.688 80.2844 60.968C80.9084 60.248 81.2204 59.216 81.2204 57.872V55.376C81.2204 54.032 80.9084 53 80.2844 52.28C79.6764 51.56 78.8204 51.2 77.7164 51.2C76.6124 51.2 75.7484 51.56 75.1244 52.28C74.5164 53 74.2124 54.032 74.2124 55.376V57.872C74.2124 59.216 74.5164 60.248 75.1244 60.968C75.7484 61.688 76.6124 62.048 77.7164 62.048Z" fill="white"/>
</svg>
