<svg width="84" height="80" viewBox="0 0 84 80" fill="none" xmlns="http://www.w3.org/2000/svg">
<g clip-path="url(#clip0_140_661)">
<path d="M73.6298 54.0169C77.0337 54.0169 81.0302 52.991 81.4535 51.0522L81.4688 50.919V43.6178L81.334 43.4453C81.334 43.4453 81.0428 43.0233 80.9142 41.989C80.7542 40.6919 79.7444 39.5893 79.1209 39.127C78.8395 38.1713 77.3495 35.6998 69.539 34.1722C64.0323 33.097 62.2307 32.4423 61.6602 32.1684L61.3384 31.8714C60.8884 31.4521 49.9727 21.4955 36.0817 21.7687C26.5413 21.9729 20.1789 23.2712 16.7607 23.968C15.435 24.2402 14.4775 24.4352 13.9997 24.4352C13.7696 24.4149 13.6662 24.409 13.569 24.409C12.9068 24.409 12.5226 24.7048 12.3184 24.9525C11.8789 25.4833 11.8654 26.2534 11.9567 26.8805C11.708 27.1232 11.1245 27.5938 10.6369 27.9845C8.65778 29.5768 7.11435 30.8786 6.74638 31.9252C6.6948 32.0742 6.65415 32.1134 6.65153 32.1134C6.5246 32.1111 6.4471 32.1007 6.36961 32.0933C6.24553 32.0806 6.11979 32.0683 5.99428 32.0683C4.74133 32.0683 4.37075 33.2753 4.20221 34.1816C3.95951 35.4776 3.83519 36.9794 3.72442 38.3065C3.60153 39.8011 3.46366 41.4955 3.18578 41.929C2.67115 42.7301 1.9402 46.5028 3.37404 49.289C4.21219 50.9185 4.67315 51.926 6.5981 52.2414C6.56862 52.0237 6.54652 51.8025 6.53416 51.5801C6.52417 51.4235 6.50943 51.2696 6.50943 51.1119C6.50943 51.0493 6.51918 50.9872 6.51918 50.9261M55.8802 52.9284C55.9294 53.1412 55.981 53.3515 56.0464 53.5581C45.816 53.3404 34.7716 53.0531 24.6896 52.8014C24.734 52.596 24.7623 52.388 24.7906 52.1776" stroke="white" stroke-width="6"/>
<path d="M71.2038 53.8528C70.136 56.2905 67.6933 57.9958 64.8463 57.9958C61.8971 57.9958 59.385 56.1632 58.3831 53.5862C58.3037 53.3808 58.2329 53.1704 58.1725 52.9553C58.1147 52.7499 58.0667 52.5396 58.0273 52.3268C57.9571 51.9321 57.9129 51.526 57.9129 51.1107C57.9129 47.3074 61.0159 44.2251 64.8451 44.2251C68.6743 44.2251 71.7773 47.3074 71.7773 51.1107C71.7773 51.6266 71.7158 52.1288 71.6069 52.613C71.5608 52.8234 71.5054 53.03 71.4384 53.2316C71.3699 53.4445 71.2917 53.6497 71.2038 53.8528Z" fill="white"/>
<path d="M22.4158 52.7674C21.6675 55.7675 18.9446 57.9961 15.6928 57.9961C12.2931 57.9961 9.4706 55.5621 8.8799 52.3552C8.84187 52.1474 8.81239 51.9382 8.79147 51.7243C8.77293 51.5215 8.76058 51.3185 8.76058 51.1107C8.76058 51.1058 8.76058 51.1008 8.76058 51.0947C8.76795 47.3001 11.8698 44.2251 15.6928 44.2251C19.5208 44.2251 22.625 47.3074 22.625 51.1107C22.625 51.2488 22.6115 51.3832 22.6041 51.5201C22.5917 51.7316 22.5708 51.9392 22.539 52.1448C22.5069 52.3554 22.465 52.5632 22.4158 52.7674Z" fill="white"/>
</g>
<defs>
<clipPath id="clip0_140_661">
<rect width="82.88" height="78.4" fill="white" transform="matrix(-1 0 0 1 83.4414 0.679932)"/>
</clipPath>
</defs>
</svg>
