<svg width="88" height="88" viewBox="0 0 88 88" fill="none" xmlns="http://www.w3.org/2000/svg">
<g clip-path="url(#clip0_140_691)">
<path d="M40.8072 40.975C40.3747 40.8534 39.9485 40.7101 39.53 40.5456C39.4201 40.5028 39.3149 40.4513 39.2113 40.4054C38.8918 40.2729 38.5917 40.1303 38.2933 39.9744C38.1709 39.9105 38.0478 39.8466 37.9278 39.778C37.6215 39.6058 37.3231 39.4211 37.0324 39.224C36.9498 39.1678 36.8648 39.1172 36.7838 39.0642C36.4183 38.8055 36.0669 38.5273 35.7302 38.2311C35.7146 38.2171 35.6951 38.2054 35.6796 38.1914L33.0253 42.0613C25.8294 52.5895 22.4356 65.2559 23.4043 77.9707L23.6934 83.1592C23.7659 84.4466 24.3542 85.6498 25.3244 86.4969C26.2954 87.3447 27.5672 87.7648 28.8515 87.6635L30.0118 87.5754L29.4804 80.713C28.4478 67.2665 32.0356 53.8698 39.6516 42.7401L40.8517 40.9844L40.8072 40.975Z" stroke="white" stroke-width="4"/>
<path d="M45.4511 29.5704C45.4892 29.5315 45.5251 29.4909 45.5586 29.4488C45.6077 29.3429 45.6451 29.2314 45.6716 29.1169C45.7074 29.0374 45.7363 28.9556 45.7581 28.8714C45.7877 28.6618 45.7737 28.4483 45.7176 28.2441C45.5282 27.5474 44.897 27.0627 44.1746 27.0596C44.0359 27.0596 43.8979 27.0783 43.7647 27.1141C42.9145 27.3424 42.4095 28.2152 42.6363 29.0662C42.6924 29.2712 42.7882 29.4637 42.9184 29.6328C43.1732 29.9608 43.5465 30.1767 43.9579 30.2344C44.1676 30.264 44.3819 30.25 44.586 30.1946C44.9375 30.0918 45.243 29.8712 45.4511 29.5704Z" fill="white"/>
<path d="M58.3367 87.5753L59.4877 87.6634C60.7735 87.767 62.0469 87.3478 63.0186 86.5007C63.9912 85.6528 64.5811 84.4488 64.6536 83.1614L64.9396 78.0112V77.9761C65.9082 65.2605 62.5152 52.594 55.3185 42.0667L52.6698 38.1929C52.6581 38.2069 52.6456 38.2194 52.6323 38.2311C52.2139 38.602 51.7705 38.9433 51.3052 39.2527C51.1455 39.361 50.9748 39.4584 50.8073 39.5605C50.4402 39.7834 50.063 39.9868 49.6757 40.1707C49.516 40.2471 49.3562 40.3297 49.184 40.3982C48.6346 40.6344 48.0689 40.8315 47.4922 40.9874L48.697 42.7431C56.3121 53.8744 59.8992 67.2711 58.8666 80.7176L58.3367 87.5753Z" stroke="white" stroke-width="4"/>
<path d="M43.791 38.2123C44.0443 38.2411 44.2999 38.2411 44.5539 38.2123H44.6911C45.1057 38.1936 45.5195 38.1461 45.9278 38.0713C46.1078 38.0299 46.3681 37.9723 46.6284 37.9006C48.6 37.3956 50.3518 36.2586 51.6158 34.6627C51.834 34.4117 52.0327 34.1452 52.2112 33.8647C52.7419 33.0153 53.1471 32.0934 53.4128 31.1278L53.5134 30.7655C54.6324 25.7492 51.6026 20.7415 46.6393 19.4051C45.02 18.9656 43.3118 18.9656 41.6916 19.4051C40.8414 19.6311 39.9679 19.1261 39.7403 18.2751L34.9235 0.318848C31.4144 7.05342 30.5603 14.8595 32.5296 22.1933L34.9235 31.131C35.1745 32.0957 35.5828 33.0121 36.133 33.8436C36.32 34.1312 36.5133 34.4071 36.7206 34.6689C38.1576 36.4542 40.1861 37.6668 42.439 38.0861C42.8216 38.1453 43.325 38.1515 43.791 38.2123ZM39.833 30.6696C39.2345 29.39 39.2338 27.9117 39.8291 26.6321C40.4253 25.3518 41.5568 24.4011 42.9206 24.0348C45.4478 23.4098 48.0116 24.9185 48.6927 27.4309C49.373 29.9441 47.9204 32.5407 45.4236 33.2755C45.0161 33.387 44.5945 33.4439 44.1721 33.4431C42.3104 33.4376 40.6201 32.3568 39.833 30.6696Z" fill="white"/>
<path d="M48.9922 16.8451L49.0413 16.8677C49.1083 16.8965 49.1738 16.9316 49.2408 16.9597C49.6367 17.1327 50.0201 17.3236 50.3933 17.5332C50.5149 17.6018 50.6341 17.6704 50.7526 17.7405C51.1508 17.9782 51.5358 18.2369 51.9067 18.5159C51.9301 18.5354 51.9558 18.5494 51.98 18.5673C52.3649 18.8689 52.7327 19.1923 53.0811 19.536C53.1754 19.6287 53.2642 19.7214 53.3554 19.815C53.6461 20.115 53.9212 20.4283 54.1807 20.7556C54.2321 20.821 54.2874 20.881 54.3404 20.9465C54.6365 21.3369 54.9093 21.7437 55.1571 22.1661C55.2179 22.2666 55.2709 22.3702 55.3285 22.4723C55.4221 22.6414 55.5226 22.8058 55.6106 22.9789L55.8164 22.2027C57.7903 14.8665 56.9393 7.05731 53.4302 0.318848L48.9922 16.8451Z" fill="white"/>
</g>
<defs>
<clipPath id="clip0_140_691">
<rect width="87.36" height="87.36" fill="white" transform="translate(0.320312 0.318848)"/>
</clipPath>
</defs>
</svg>
