<svg width="69" height="69" viewBox="0 0 69 69" fill="none" xmlns="http://www.w3.org/2000/svg">
<path d="M21.75 38.8291H38.83V43.0991H21.75V38.8291Z" fill="white"/>
<path d="M21.75 28.1538H47.37V32.4238H21.75V28.1538Z" fill="white"/>
<path d="M21.75 49.5039H32.425V53.7739H21.75V49.5039Z" fill="white"/>
<path d="M53.7742 11.0739H47.3692V8.93895C47.3692 7.80647 46.9193 6.72038 46.1186 5.9196C45.3178 5.11882 44.2317 4.66895 43.0992 4.66895H26.0192C24.8867 4.66895 23.8007 5.11882 22.9999 5.9196C22.1991 6.72038 21.7492 7.80647 21.7492 8.93895V11.0739H15.3442C14.2117 11.0739 13.1257 11.5238 12.3249 12.3246C11.5241 13.1254 11.0742 14.2115 11.0742 15.3439V60.1789C11.0742 61.3114 11.5241 62.3975 12.3249 63.1983C13.1257 63.9991 14.2117 64.4489 15.3442 64.4489H53.7742C54.9067 64.4489 55.9928 63.9991 56.7936 63.1983C57.5943 62.3975 58.0442 61.3114 58.0442 60.1789V15.3439C58.0442 14.2115 57.5943 13.1254 56.7936 12.3246C55.9928 11.5238 54.9067 11.0739 53.7742 11.0739ZM53.7742 60.1789H15.3442V15.3439H21.7492V21.7489H47.3692V15.3439H53.7742V60.1789Z" fill="white"/>
</svg>
