<svg width="67" height="64" viewBox="0 0 67 64" fill="none" xmlns="http://www.w3.org/2000/svg">
<g clip-path="url(#clip0_140_667)">
<path fill-rule="evenodd" clip-rule="evenodd" d="M66.5981 23.9793C66.5981 11.0864 56.1692 0.639648 43.3108 0.639648C30.4407 0.639648 20.0156 11.0864 20.0156 23.9793C20.0156 36.8644 30.4446 47.3112 43.3108 47.3112C56.1692 47.3112 66.5981 36.8644 66.5981 23.9793ZM23.5839 24.2341C23.587 21.6167 24.1015 19.0255 25.098 16.6087C26.0946 14.1919 27.5536 11.9968 29.3918 10.1489C31.2299 8.30098 33.4111 6.8365 35.8108 5.83913C38.2104 4.84176 40.7814 4.33106 43.3768 4.33621C45.9713 4.33209 48.5411 4.84361 50.9394 5.84153C53.3377 6.83946 55.5175 8.30423 57.3542 10.1521C59.1909 12 60.6485 14.1948 61.6437 16.6111C62.6389 19.0274 63.1522 21.6177 63.1542 24.2341C63.1517 26.8502 62.638 29.4402 61.6426 31.856C60.6471 34.2718 59.1894 36.4661 57.3528 38.3136C55.5161 40.1611 53.3365 41.6255 50.9385 42.6232C48.5404 43.6209 45.9709 44.1322 43.3768 44.1281C32.4426 44.1281 23.5839 35.2219 23.5839 24.2341Z" fill="white"/>
<path fill-rule="evenodd" clip-rule="evenodd" d="M11.4885 63.2183L4.40625 56.076L20.0983 40.2471C20.0983 40.2471 20.4715 43.2459 22.3528 45.1353C24.2264 47.0326 27.1805 47.3932 27.1805 47.3932L11.4885 63.2183Z" fill="white"/>
<path d="M41.5989 25.4301C41.7098 26.5776 41.895 27.4317 42.1539 27.9926C42.4123 28.553 42.8756 28.8344 43.5424 28.8344C43.6675 28.8344 43.7797 28.8138 43.8911 28.7927C44.0033 28.8138 44.1142 28.8344 44.2389 28.8344C44.9047 28.8344 45.3671 28.553 45.6274 27.9926C45.8854 27.4317 46.0709 26.5776 46.1814 25.4301L46.7734 16.5723C46.8843 14.8456 46.9398 13.606 46.9398 12.8545C46.9398 11.8308 46.6717 11.0321 46.1365 10.4597C45.599 9.88693 44.8928 9.59961 44.0176 9.59961C43.9717 9.59961 43.9364 9.61015 43.892 9.61198C43.8475 9.61015 43.8118 9.59961 43.7664 9.59961C42.8903 9.59961 42.185 9.88647 41.648 10.4597C41.1118 11.0325 40.8438 11.8313 40.8438 12.855C40.8438 13.607 40.8997 14.846 41.0101 16.5727L41.6017 25.4301" fill="white"/>
<path d="M43.9082 32.0688C43.061 32.0688 42.3374 32.3378 41.738 32.8726C41.1395 33.4106 40.8398 34.0604 40.8398 34.8238C40.8398 35.689 41.1427 36.3658 41.7476 36.858C42.3543 37.351 43.061 37.5994 43.867 37.5994C44.6891 37.5994 45.4053 37.3547 46.018 36.8685C46.6307 36.3814 46.9345 35.7 46.9345 34.8234C46.9345 34.0599 46.6412 33.4101 46.056 32.8722C45.4713 32.3378 44.7551 32.0688 43.9064 32.0688" fill="white"/>
</g>
<defs>
<clipPath id="clip0_140_667">
<rect width="66.08" height="62.72" fill="white" transform="translate(0.519531 0.639648)"/>
</clipPath>
</defs>
</svg>
