<svg width="75" height="72" viewBox="0 0 75 72" fill="none" xmlns="http://www.w3.org/2000/svg">
<path d="M33.0114 45.2161C30.5747 45.2161 28.1928 44.4955 26.1668 43.1452C24.1408 41.795 22.5617 39.8759 21.6292 37.6306C20.6967 35.3852 20.4528 32.9145 20.9281 30.5309C21.4035 28.1472 22.5769 25.9577 24.2999 24.2392C26.0228 22.5207 28.2181 21.3504 30.6079 20.8763C32.9977 20.4021 35.4749 20.6455 37.7261 21.5755C39.9773 22.5056 41.9014 24.0805 43.2551 26.1013C44.6089 28.122 45.3314 30.4978 45.3314 32.9281C45.349 34.5467 45.0424 36.1525 44.4294 37.6512C43.8165 39.15 42.9097 40.5116 41.7622 41.6562C40.6146 42.8007 39.2495 43.7052 37.7468 44.3165C36.2441 44.9278 34.6342 45.2337 33.0114 45.2161ZM33.0114 24.7361C31.9261 24.7115 30.847 24.9066 29.8393 25.3095C28.8317 25.7125 27.9164 26.315 27.1487 27.0807C26.381 27.8463 25.777 28.7592 25.373 29.7643C24.9689 30.7693 24.7734 31.8456 24.7981 32.9281C24.7734 34.0107 24.9689 35.087 25.373 36.092C25.777 37.097 26.381 38.01 27.1487 38.7756C27.9164 39.5413 28.8317 40.1438 29.8393 40.5468C30.847 40.9497 31.9261 41.1448 33.0114 41.1201C34.0968 41.1448 35.1759 40.9497 36.1835 40.5468C37.1912 40.1438 38.1065 39.5413 38.8741 38.7756C39.6418 38.01 40.2459 37.097 40.6499 36.092C41.0539 35.087 41.2494 34.0107 41.2247 32.9281C41.2494 31.8456 41.0539 30.7693 40.6499 29.7643C40.2459 28.7592 39.6418 27.8463 38.8741 27.0807C38.1065 26.315 37.1912 25.7125 36.1835 25.3095C35.1759 24.9066 34.0968 24.7115 33.0114 24.7361Z" fill="white"/>
<path d="M60.3329 22.7785L55.487 14.4062C55.0126 13.5854 54.2674 12.9541 53.3784 12.6202C52.4894 12.2863 51.5118 12.2704 50.6124 12.5753L45.6146 14.2608C44.7533 13.6825 43.8532 13.1638 42.9206 12.7084L41.8878 7.54953C41.7016 6.62065 41.1984 5.78483 40.4639 5.18438C39.7293 4.58393 38.8088 4.25597 37.8591 4.25635H28.1674C27.2177 4.25597 26.2972 4.58393 25.5626 5.18438C24.8281 5.78483 24.3249 6.62065 24.1388 7.54953L23.1059 12.7084C22.1629 13.1588 21.2524 13.6741 20.3811 14.2506L15.4121 12.5753C14.5132 12.2715 13.5365 12.2879 12.6484 12.6218C11.7604 12.9556 11.0158 13.5863 10.5416 14.4062L5.69571 22.7785C5.221 23.5983 5.04566 24.5568 5.19952 25.4909C5.35338 26.4251 5.82693 27.2773 6.53963 27.9026L10.5046 31.378C10.4697 31.8941 10.4266 32.4061 10.4266 32.9283C10.4266 33.4567 10.4471 33.979 10.4841 34.4971L6.54168 37.9541C5.82831 38.5789 5.35398 39.4308 5.19937 40.365C5.04476 41.2992 5.21943 42.258 5.69365 43.0782L10.5395 51.4505C11.0136 52.2717 11.7587 52.9034 12.6477 53.2377C13.5367 53.572 14.5145 53.5881 15.4141 53.2834L20.4119 51.5959C21.2729 52.1753 22.1731 52.6947 23.1059 53.1503L24.1388 58.3072C24.3249 59.236 24.8281 60.0719 25.5626 60.6723C26.2972 61.2728 27.2177 61.6007 28.1674 61.6003H37.1199V57.5043H28.1674L26.7095 50.234C24.6928 49.4867 22.8207 48.3976 21.1758 47.0145L14.0979 49.4025L9.25208 41.0302L14.8474 36.1253C14.4646 34.0074 14.4597 31.8387 14.833 29.7191L9.25208 24.8265L14.0979 16.4542L21.1347 18.8299C22.7913 17.4449 24.678 16.3595 26.7095 15.6227L28.1674 8.35235H37.8591L39.317 15.6227C41.3337 16.3701 43.2058 17.4592 44.8507 18.8422L51.9286 16.4542L56.7744 24.8265L51.0292 29.8482L53.7355 32.9283L59.4848 27.9026C60.1982 27.2778 60.6725 26.4259 60.8271 25.4917C60.9818 24.5575 60.8071 23.5987 60.3329 22.7785Z" fill="white"/>
<path fill-rule="evenodd" clip-rule="evenodd" d="M57.0921 64.672C65.0303 64.672 71.4654 58.2536 71.4654 50.336C71.4654 42.4184 65.0303 36 57.0921 36C49.1539 36 42.7188 42.4184 42.7188 50.336C42.7188 58.2536 49.1539 64.672 57.0921 64.672ZM50.9844 48.5754L54.8521 52.3597L63.1998 44.192L65.3054 46.2522L54.8521 56.48L48.8788 50.6355L50.9844 48.5754Z" fill="white"/>
</svg>
